<svg width="24" height="24" viewBox="0 0 24 24" fill="none" xmlns="http://www.w3.org/2000/svg">
<path fill-rule="evenodd" clip-rule="evenodd" d="M18.0169 20.3812L17.8238 18.9999C17.0646 19.0556 16.2385 18.7009 15.8925 17.6411C17.6743 16.4479 18.6638 14.9486 19.1832 13.0717C19.5816 11.7111 19.4811 9.62925 19.1818 8.43675C18.3923 5.29237 16.045 3.423 12.5818 3.22237C9.30434 3.03243 6.34747 4.81368 5.07434 7.78425C4.6549 8.76281 4.4389 9.828 4.4389 11.1517C4.4389 15.1399 6.47328 17.883 9.9814 18.633C10.7818 18.7959 12.8258 18.8707 13.6358 18.6151C14.5047 20.0443 15.9027 21.2045 18.0158 20.3821L18.0169 20.3812ZM8.23302 8.78437C7.96334 9.86812 7.9369 12.4905 8.1844 13.5937L8.18506 13.5926C8.81318 15.9026 10.0563 17.198 12.8951 16.7707C12.8429 16.0897 11.8241 15.3771 11.0789 15.5478L10.8911 14.2398C12.2298 13.7351 14.0165 14.2996 14.8023 15.5857C15.1214 15.0268 15.3709 14.4106 15.5426 13.7823C16.0358 12.0348 15.9723 10.0258 15.583 8.30733C15.1596 6.84708 14.4801 5.91502 13.5018 5.45358C12.6018 5.03418 11.3965 5.10075 10.4249 5.53125C9.33008 6.12562 8.64009 7.14937 8.23302 8.78437Z" fill="white"/>
</svg>
