<svg width="24" height="24" viewBox="0 0 24 24" fill="none" xmlns="http://www.w3.org/2000/svg">
<path fill-rule="evenodd" clip-rule="evenodd" d="M18.9868 9.52306C18.4694 9.55346 17.9815 9.77416 17.6168 10.1424C16.0732 9.1222 14.2684 8.56838 12.4184 8.54718L13.4693 3.79914L16.8286 4.54982C16.8262 4.74608 16.8626 4.9409 16.936 5.12294C17.0095 5.305 17.1182 5.47065 17.2561 5.61032C17.3941 5.74998 17.5585 5.86088 17.7396 5.93654C17.9207 6.01223 18.1149 6.05119 18.3112 6.05117C18.7111 6.04624 19.093 5.8839 19.374 5.59936C19.6551 5.31482 19.8126 4.93097 19.8126 4.53105C19.8238 4.1879 19.7155 3.8515 19.5065 3.57927C19.2972 3.30701 19 3.11582 18.6655 3.03829C18.3311 2.96076 17.9802 3.00173 17.6724 3.15418C17.3648 3.30662 17.1197 3.56112 16.9788 3.87421L13.2254 3.04846C13.136 3.03133 13.0435 3.04897 12.9668 3.09782C12.89 3.14667 12.8348 3.223 12.8125 3.3112L11.6489 8.54718C9.79965 8.57364 7.9963 9.12689 6.4505 10.1424C6.24735 9.93255 6.0009 9.76965 5.72831 9.66494C5.45572 9.56022 5.16358 9.51611 4.87224 9.53601C4.5809 9.55571 4.29737 9.63866 4.04141 9.77923C3.78546 9.91979 3.56324 10.1146 3.39025 10.3497C3.21728 10.5851 3.09767 10.8553 3.03982 11.1415C2.98196 11.4277 2.98721 11.7231 3.05522 12.007C3.12323 12.291 3.25235 12.5567 3.4336 12.7857C3.61485 13.0146 3.84385 13.2014 4.10463 13.3327C4.07594 13.6448 4.07594 13.959 4.10463 14.2711C4.10463 17.4427 7.68912 20.0325 12.0993 20.0325C16.5096 20.0325 20.0941 17.4427 20.0941 14.2711C20.0948 13.9487 20.0569 13.6274 19.9815 13.314C20.3607 13.0991 20.6599 12.7667 20.8335 12.367C21.0073 11.9673 21.0463 11.5219 20.9446 11.098C20.8429 10.6742 20.6058 10.2949 20.2697 10.0176C19.9334 9.74038 19.516 9.57992 19.0807 9.56059L18.9868 9.52306ZM7.84967 14.7688C8.09657 14.9338 8.38687 15.0218 8.68377 15.0218C8.88101 15.0218 9.07618 14.9829 9.25822 14.9075C9.44045 14.832 9.60597 14.7215 9.74541 14.5821C9.88485 14.4426 9.99539 14.2771 10.0708 14.0949C10.1463 13.9128 10.1851 13.7177 10.1851 13.5204C10.1851 13.2235 10.0971 12.9332 9.93214 12.6862C9.76718 12.4394 9.5326 12.2469 9.25822 12.1334C8.98404 12.0196 8.68208 11.99 8.39082 12.048C8.09965 12.1058 7.83212 12.2488 7.62216 12.4588C7.41219 12.6688 7.26919 12.9362 7.21128 13.2275C7.15334 13.5187 7.18307 13.8207 7.2967 14.0949C7.41034 14.3692 7.60277 14.6038 7.84967 14.7688ZM12.0055 17.3714C13.0015 17.3714 13.9772 17.0905 14.8206 16.5607C14.8557 16.5237 14.8979 16.4944 14.9446 16.4743C14.9913 16.4543 15.0418 16.4437 15.0927 16.4437C15.1435 16.4437 15.194 16.4543 15.2407 16.4743C15.2875 16.4944 15.3297 16.5237 15.3648 16.5607C15.4012 16.5941 15.4303 16.6346 15.4502 16.6798C15.4701 16.7251 15.4804 16.774 15.4804 16.8234C15.4804 16.8728 15.4701 16.9217 15.4502 16.967C15.4303 17.0122 15.4012 17.0527 15.3648 17.0861C14.3792 17.755 13.2154 18.1125 12.0243 18.1125C10.8331 18.1125 9.66941 17.755 8.68377 17.0861C8.64736 17.0527 8.61827 17.0122 8.59838 16.967C8.57848 16.9217 8.56835 16.8728 8.56835 16.8234C8.56835 16.774 8.57848 16.7251 8.59838 16.6798C8.61827 16.6346 8.64736 16.5941 8.68377 16.5607C8.75302 16.4974 8.84329 16.4623 8.93712 16.4623C9.03096 16.4623 9.12122 16.4974 9.19047 16.5607C10.0339 17.0905 11.0096 17.3714 12.0055 17.3714ZM14.4555 12.272C14.7025 12.1071 14.9928 12.0191 15.2897 12.0191C15.688 12.0191 16.0699 12.1773 16.3514 12.4588C16.6329 12.7403 16.7911 13.1222 16.7911 13.5204C16.7911 13.8173 16.7031 14.1076 16.5381 14.3546C16.3731 14.6014 16.1386 14.7939 15.8644 14.9075C15.59 15.0212 15.288 15.0509 14.9968 14.9929C14.7055 14.9351 14.4381 14.7921 14.2281 14.5821C14.0181 14.3721 13.8751 14.1046 13.8173 13.8134C13.7593 13.5221 13.7891 13.2201 13.9027 12.946C14.0162 12.6716 14.2088 12.437 14.4555 12.272Z" fill="white"/>
</svg>
