<svg width="24" height="24" viewBox="0 0 24 24" fill="none" xmlns="http://www.w3.org/2000/svg">
<path d="M12 3C7.02961 3 3 7.02961 3 12C3 16.9704 7.02961 21 12 21C16.9704 21 21 16.9704 21 12C21 7.02961 16.9704 3 12 3ZM17.3063 9.90592C16.7945 11.0623 15.2293 14.7251 14.1849 17.1126C14.1834 17.1137 13.9112 17.112 13.9105 17.1116L12.2633 13.2319C11.6105 14.5123 10.8872 15.8433 10.2687 17.1098C10.265 17.1162 9.96945 17.1127 9.96908 17.1087C9.02351 14.9015 8.04313 12.709 7.09258 10.5035C6.87253 9.9643 6.1006 9.09717 5.5723 9.10214C5.5723 9.03953 5.56935 8.89976 5.56861 8.81524L8.82463 8.81487L8.82206 9.0968C8.43977 9.11448 7.77907 9.35846 7.95032 9.78052C8.40921 10.7714 10.0341 14.61 10.4733 15.5845C10.7797 14.9848 11.6354 13.386 11.9878 12.7102C11.7116 12.1434 10.7988 10.0273 10.5252 9.49436C10.3188 9.14688 9.80078 9.10435 9.40192 9.09827C9.40192 9.00933 9.40653 8.94083 9.40487 8.81874L12.267 8.82758V9.08759C11.8796 9.09827 11.5128 9.24245 11.679 9.61295C12.0641 10.4121 12.2889 10.9811 12.6423 11.7203C12.7552 11.5037 13.3337 10.3167 13.6096 9.69029C13.7762 9.27376 13.5273 9.11779 12.8303 9.09901C12.8395 9.03051 12.8334 8.89295 12.8395 8.8274L15.3114 8.82979L15.3126 9.08777C14.8583 9.10545 14.388 9.34742 14.1425 9.72307L12.9522 12.1917C13.0828 12.5182 14.2272 15.0606 14.3476 15.3426L16.8085 9.6623C16.6334 9.2025 16.0749 9.09974 15.8565 9.09477C15.858 9.02148 15.8584 8.90971 15.8587 8.81635L18.4277 8.82371L18.4314 8.8366L18.4272 9.0933C17.8635 9.11042 17.5149 9.41187 17.3063 9.90592Z" fill="white"/>
</svg>
