<svg width="24" height="24" viewBox="0 0 24 24" fill="none" xmlns="http://www.w3.org/2000/svg">
<path d="M15.5505 18.7546H9.17546C8.79296 18.7546 8.53796 19.0036 8.53796 19.3773C8.53796 19.7509 8.79296 20 9.17546 20H15.5505C15.933 20 16.188 19.7509 16.188 19.3773C16.188 19.0036 15.933 18.7546 15.5505 18.7546Z" fill="white"/>
<path d="M18.6105 10.6593L13.0005 3V8.91575C13.7655 9.16484 14.2755 9.84982 14.2755 10.6593C14.2755 11.7179 13.4467 12.5275 12.363 12.5275C11.2792 12.5275 10.4505 11.7179 10.4505 10.6593C10.4505 9.84982 10.9605 9.16484 11.7255 8.91575V3L6.11548 10.6593C5.92423 10.9084 5.98798 11.2198 6.17923 11.4689C7.64548 12.9634 8.72923 14.8315 9.23923 17.011C9.30298 17.3223 9.55798 17.5092 9.87673 17.5092H14.913C15.2317 17.5092 15.4867 17.3223 15.5505 17.011C16.0605 14.8315 17.1442 12.9011 18.6105 11.4689C18.8017 11.2198 18.8017 10.9084 18.6105 10.6593Z" fill="white"/>
</svg>
