<svg width="24" height="24" viewBox="0 0 24 24" fill="none" xmlns="http://www.w3.org/2000/svg">
<g clip-path="url(#clip0_23_79)">
<path d="M11.9944 6C11.9944 6 6.36868 6 4.9567 6.3669C4.20067 6.57814 3.57815 7.20068 3.3669 7.96782C3.00001 9.37981 3 12.3039 3 12.3039C3 12.3039 3.00001 15.2391 3.3669 16.6289C3.57815 17.396 4.18956 18.0074 4.9567 18.2187C6.3798 18.5967 11.9944 18.5967 11.9944 18.5967C11.9944 18.5967 17.6313 18.5967 19.0433 18.2298C19.8104 18.0186 20.4218 17.4183 20.6219 16.64C21 15.2391 21 12.315 21 12.315C21 12.315 21.0111 9.37981 20.6219 7.96782C20.4218 7.20068 19.8104 6.58928 19.0433 6.38915C17.6313 6.00002 11.9944 6 11.9944 6ZM10.2044 9.60229L14.8852 12.3039L10.2044 14.9944V9.60229Z" fill="white"/>
</g>
<defs>
<clipPath id="clip0_23_79">
<rect width="24" height="24" fill="white"/>
</clipPath>
</defs>
</svg>
