<svg width="24" height="24" viewBox="0 0 24 24" fill="none" xmlns="http://www.w3.org/2000/svg">
<rect width="24" height="24" rx="12" fill="white" fill-opacity="0.3"/>
<path d="M17.1433 10.4055L10.992 6.32206C10.7019 6.12943 10.3648 6.01888 10.0165 6.00221C9.66823 5.98554 9.32195 6.06339 9.01468 6.22744C8.70741 6.39148 8.4507 6.63556 8.27198 6.93358C8.09326 7.23159 7.99925 7.57235 8 7.91943V16.0844C7.99995 16.4312 8.09447 16.7714 8.27347 17.0689C8.45247 17.3664 8.70924 17.6099 9.01638 17.7735C9.32353 17.937 9.66952 18.0146 10.0175 17.9977C10.3654 17.9809 10.7022 17.8704 10.992 17.6779L17.1433 13.5945C17.4069 13.4196 17.6229 13.1826 17.7724 12.9046C17.9218 12.6267 18 12.3162 18 12.001C18 11.6857 17.9218 11.3753 17.7724 11.0973C17.6229 10.8193 17.4069 10.5804 17.1433 10.4055Z" fill="white"/>
</svg>
