<svg width="24" height="24" viewBox="0 0 24 24" fill="none" xmlns="http://www.w3.org/2000/svg">
<path d="M4 4.00005V9.00005H4.582M4.582 9.00005C5.24585 7.35818 6.43568 5.98296 7.96503 5.08991C9.49438 4.19686 11.2768 3.83646 13.033 4.06519C14.7891 4.29392 16.4198 5.09884 17.6694 6.35383C18.919 7.60881 19.7168 9.24291 19.938 11M4.582 9.00005H9M20 20V15H19.419M19.419 15C18.7542 16.641 17.564 18.0151 16.0348 18.9073C14.5056 19.7996 12.7237 20.1596 10.9681 19.9309C9.21246 19.7023 7.5822 18.8979 6.33253 17.6438C5.08287 16.3896 4.28435 14.7565 4.062 13M19.419 15H15" stroke="#ff4122" stroke-width="2" stroke-linecap="round" stroke-linejoin="round"/>
</svg>
