<svg width="24" height="24" viewBox="0 0 24 24" fill="none" xmlns="http://www.w3.org/2000/svg">
<path d="M9.54955 6.21429H16.7857V4.92857H9.54955L8.9067 5.57143L9.54955 6.21429ZM6.63259 6.02545C6.38348 5.77634 6.38348 5.36652 6.63259 5.11741L8.37232 3.37768C8.61339 3.13661 8.93884 3 9.28036 3H17.4286C18.1397 3 18.7143 3.57455 18.7143 4.28571V6.85714C18.7143 7.5683 18.1397 8.14286 17.4286 8.14286H9.28438C8.94286 8.14286 8.61741 8.00625 8.37634 7.76518L6.63661 6.02545H6.63259ZM3.28571 6.85714C2.94472 6.85714 2.6177 6.72168 2.37658 6.48057C2.13546 6.23945 2 5.91242 2 5.57143C2 5.23044 2.13546 4.90341 2.37658 4.66229C2.6177 4.42117 2.94472 4.28571 3.28571 4.28571C3.62671 4.28571 3.95373 4.42117 4.19485 4.66229C4.43597 4.90341 4.57143 5.23044 4.57143 5.57143C4.57143 5.91242 4.43597 6.23945 4.19485 6.48057C3.95373 6.72168 3.62671 6.85714 3.28571 6.85714ZM3.28571 13.2857C2.94472 13.2857 2.6177 13.1503 2.37658 12.9091C2.13546 12.668 2 12.341 2 12C2 11.659 2.13546 11.332 2.37658 11.0909C2.6177 10.8497 2.94472 10.7143 3.28571 10.7143C3.62671 10.7143 3.95373 10.8497 4.19485 11.0909C4.43597 11.332 4.57143 11.659 4.57143 12C4.57143 12.341 4.43597 12.668 4.19485 12.9091C3.95373 13.1503 3.62671 13.2857 3.28571 13.2857ZM2 18.4286C2 18.0876 2.13546 17.7606 2.37658 17.5194C2.6177 17.2783 2.94472 17.1429 3.28571 17.1429C3.62671 17.1429 3.95373 17.2783 4.19485 17.5194C4.43597 17.7606 4.57143 18.0876 4.57143 18.4286C4.57143 18.7696 4.43597 19.0966 4.19485 19.3377C3.95373 19.5788 3.62671 19.7143 3.28571 19.7143C2.94472 19.7143 2.6177 19.5788 2.37658 19.3377C2.13546 19.0966 2 18.7696 2 18.4286ZM9.54955 19.0714H16.7857V17.7857H9.54955L8.9067 18.4286L9.54955 19.0714ZM6.63259 18.8826C6.38348 18.6335 6.38348 18.2237 6.63259 17.9746L8.37232 16.2348C8.61339 15.9937 8.93884 15.8571 9.28036 15.8571H17.4286C18.1397 15.8571 18.7143 16.4317 18.7143 17.1429V19.7143C18.7143 20.4254 18.1397 21 17.4286 21H9.28438C8.94286 21 8.61741 20.8634 8.37634 20.6223L6.63661 18.8826H6.63259ZM8.9067 12L9.54955 12.6429H19.3571V11.3571H9.54955L8.9067 12ZM8.37232 14.1938L6.63259 12.454C6.38348 12.2049 6.38348 11.7951 6.63259 11.546L8.37232 9.80625C8.61339 9.56518 8.93884 9.42857 9.28036 9.42857H20C20.7112 9.42857 21.2857 10.0031 21.2857 10.7143V13.2857C21.2857 13.9969 20.7112 14.5714 20 14.5714H9.28438C8.94286 14.5714 8.61741 14.4348 8.37634 14.1938H8.37232Z" fill="white"/>
</svg>
