<svg width="24" height="24" viewBox="0 0 24 24" fill="none" xmlns="http://www.w3.org/2000/svg">
<path d="M18.7137 21.7383H19.8264L19.0396 20.9342C18.6154 20.5005 18.3506 19.9366 18.2794 19.3247C20.096 18.1062 21 16.3408 21 14.4902C21 11.0758 17.9301 7.60606 13.1222 7.60606C8.02875 7.60606 5.29755 10.7989 5.29755 14.1909C5.29755 17.6055 8.05757 20.7961 13.1222 20.7961C14.0094 20.7961 14.9352 20.6751 15.7617 20.453C16.5441 21.2733 17.6042 21.7383 18.7137 21.7383Z" fill="#006A1D"/>
<path d="M4.66728 19.4876H3.36924L4.28708 18.5494C4.78198 18.0436 5.09101 17.3856 5.1741 16.6718C3.05478 15.2502 2 13.1905 2 11.0315C2 7.04804 5.58161 3 11.1909 3C17.1331 3 20.3196 6.72495 20.3196 10.6824C20.3196 14.666 17.0995 18.3884 11.1909 18.3884C10.1558 18.3884 9.07568 18.2472 8.11138 17.988C7.19855 18.945 5.96174 19.4876 4.66728 19.4876Z" fill="#34A853"/>
</svg>
