<svg width="24" height="24" viewBox="0 0 24 24" fill="none" xmlns="http://www.w3.org/2000/svg">
<path d="M11 4.34497L11.9019 5.00007H13C11.9019 5.00007 11.9019 5.00007 11 4.34497Z" fill="#007CDD"/>
<path d="M9.4668 3.206C9.31846 3.07238 9.13683 2.99998 8.95 3H5.55L5.4004 3.005C4.75109 3.04989 4.14091 3.38499 3.69469 3.94174C3.24848 4.49849 2.99996 5.23479 3 6V17L3.00425 17.176C3.04241 17.9399 3.32724 18.6578 3.80048 19.1827C4.27371 19.7077 4.89957 20 5.55 20H17.45L17.5996 19.995C18.2489 19.9501 18.8591 19.615 19.3053 19.0583C19.7515 18.5015 20 17.7652 20 17V9V8C19.9618 7.23611 19.7228 6.34224 19.2495 5.81728C18.7763 5.29233 18.1504 4.99996 17.5 5H13H11.9019L11 4.3449L9.4668 3.206Z" fill="#007CDD"/>
<path d="M3 4.5C3 3.67157 3.67157 3 4.5 3H6.5C7.32843 3 8 3.67157 8 4.5V6.5C8 7.32843 7.32843 8 6.5 8H4.5C3.67157 8 3 7.32843 3 6.5V4.5Z" fill="#007CDD"/>
<path d="M16 6.5C16 5.67157 16.6716 5 17.5 5H18.5C19.3284 5 20 5.67157 20 6.5V8.5C20 9.32843 19.3284 10 18.5 10H17.5C16.6716 10 16 9.32843 16 8.5V6.5Z" fill="#007CDD"/>
<path d="M9.6001 9.47061H11.1068L12.3921 8.35596C11.1068 9.47061 11.1068 9.47061 9.6001 9.47061Z" fill="#007CDD"/>
<path d="M14.35 7C14.1412 6.99999 13.9382 7.05961 13.7724 7.16965L13.6774 7.24129L12.392 8.35594L11.1067 9.47059H9.6H4.85H3.9C2.85066 9.47059 2 10.3555 2 11.4471V11.6118C2 11.6665 2.00214 11.7208 2.00634 11.7744L2.00475 11.7962L2 11.9412V18.5294C2 18.5849 2.00215 18.6402 2.00641 18.6953C2.00217 18.7492 2 18.8037 2 18.8588V19.0235C2 20.1151 2.85066 21 3.9 21H4.85H18.15H19.1C20.1493 21 21 20.1151 21 19.0235V18.8588C21 18.8041 20.9979 18.7498 20.9937 18.6962L20.9953 18.6744L21 18.5294V9.47059C21 9.41509 20.9979 9.35978 20.9936 9.30474C20.9978 9.25081 21 9.19625 21 9.14118V8.97647C21 7.8849 20.1493 7 19.1 7H18.15H14.35Z" fill="#35A7FF"/>
</svg>
