<svg width="24" height="24" viewBox="0 0 24 24" fill="none" xmlns="http://www.w3.org/2000/svg">
<path d="M2.33394 13.2471C1.88869 12.4754 1.88869 11.5246 2.33394 10.7529L6.08767 4.24708C6.53292 3.47538 7.35577 3 8.24627 3H15.7537C16.6442 3 17.4671 3.47538 17.9123 4.24708L21.6661 10.7529C22.1113 11.5246 22.1113 12.4754 21.6661 13.2471L17.9123 19.7529C17.4671 20.5246 16.6442 21 15.7537 21H8.24627C7.35577 21 6.53292 20.5246 6.08767 19.7529L2.33394 13.2471Z" fill="#424242"/>
<path d="M16 12C16 14.2092 14.2092 16 12 16C9.79085 16 8 14.2092 8 12C8 9.79085 9.79085 8 12 8C14.2092 8 16 9.79085 16 12Z" fill="#161616"/>
</svg>
