<svg width="24" height="24" viewBox="0 0 24 24" fill="none" xmlns="http://www.w3.org/2000/svg">
<mask id="mask0_6_104" style="mask-type:luminance" maskUnits="userSpaceOnUse" x="2" y="2" width="20" height="20">
<path d="M22 2H2V22H22V2Z" fill="white"/>
</mask>
<g mask="url(#mask0_6_104)">
<path d="M22 12C22 14.9245 20.7446 17.5558 18.7433 19.3844C16.9652 21.009 14.5984 22 12 22C9.40165 22 7.0348 21.009 5.2567 19.3844C3.2554 17.5558 2 14.9245 2 12C2 6.47715 6.47715 2 12 2C17.5229 2 22 6.47715 22 12Z" fill="#161616"/>
<path d="M16 9.5C16 11.7092 14.2092 13.5 12 13.5C9.79085 13.5 8 11.7092 8 9.5C8 7.29085 9.79085 5.5 12 5.5C14.2092 5.5 16 7.29085 16 9.5Z" fill="#424242"/>
<path fill-rule="evenodd" clip-rule="evenodd" d="M18.7432 19.3844C16.9651 21.009 14.5983 22 11.9999 22C9.40155 22 7.0347 21.009 5.25659 19.3844C6.07957 16.8554 8.78695 15 11.9999 15C15.2129 15 17.9203 16.8554 18.7432 19.3844Z" fill="#424242"/>
</g>
</svg>
